<svg width="90" height="30" viewBox="0 0 90 30" fill="none" xmlns="http://www.w3.org/2000/svg">
<path d="M0 0V29.2621H5.42013L10.3466 16.0817L15.2336 29.2621H16.3887L10.5046 13.6989H10.2578L4.6698 28.2851H0.947783V0.887335H30.0526V28.3449H22.7567C22.7863 28.3449 22.8455 28.305 22.8751 28.295C22.9837 28.2452 23.0923 28.1854 23.2009 28.1255C23.5761 27.9062 23.9216 27.647 24.2376 27.3479C24.7016 26.9192 25.1064 26.4107 25.4322 25.8623C25.8666 25.1345 26.1529 24.3269 26.3306 23.4994C26.607 22.2133 26.607 20.9371 26.3108 19.661C26.2812 19.5413 26.2516 19.4316 26.222 19.312C26.0739 18.7537 25.8764 18.2153 25.6099 17.7068C25.3828 17.2582 25.1064 16.8394 24.7904 16.4606C24.5041 16.1116 24.1882 15.8025 23.8427 15.5234C23.5267 15.2642 23.1911 15.0448 22.8356 14.8454C22.5197 14.666 22.1939 14.5164 21.8582 14.3868C21.5719 14.2771 21.2856 14.1874 20.9894 14.1076C20.6735 14.0279 20.3477 13.9581 20.0219 13.9282C19.6764 13.8883 19.3308 13.9082 18.9853 13.9082C18.7088 13.9082 18.4225 13.9082 18.1461 13.9082C17.6327 13.9082 17.1193 13.9082 16.5961 13.9082C16.4973 13.9082 16.3986 13.9082 16.2999 13.9082V19.2123H17.2773V14.8753C17.6524 14.8753 18.0276 14.8753 18.4028 14.8753C18.6595 14.8753 18.926 14.8753 19.1827 14.8753C19.5085 14.8753 19.8343 14.8554 20.1503 14.9152C20.2391 14.9351 20.328 14.9551 20.4069 14.975C20.6538 15.0349 20.8907 15.1046 21.1277 15.1944C21.4337 15.304 21.7398 15.4337 22.0261 15.5932C22.3617 15.7726 22.6875 15.982 22.9936 16.2213C23.3391 16.4905 23.6452 16.7896 23.9216 17.1286C24.2376 17.5074 24.4943 17.9262 24.7115 18.3649C24.9583 18.8733 25.136 19.4217 25.2446 19.98C25.4717 21.0667 25.442 22.1535 25.2051 23.2402C25.0373 23.9979 24.7509 24.7257 24.3363 25.3738C23.9907 25.9222 23.5563 26.4107 23.0528 26.8195C22.6184 27.1784 22.1248 27.4675 21.6213 27.6968C21.1968 27.8863 20.7525 28.0458 20.2983 28.1555C19.9923 28.2352 19.6764 28.295 19.3604 28.3249C19.3407 28.3249 19.0544 28.3549 19.0544 28.3549V29.2721H30.951V0H0Z" fill="white"/>
<path d="M45.5135 14.267C44.4176 13.3996 42.8478 13.29 41.5347 13.5991C41.3472 13.6389 41.1695 13.6987 40.9917 13.7685C40.271 14.0577 39.6688 14.5761 39.2245 15.2142C38.8494 15.7526 38.5828 16.3907 38.4643 17.0387C38.4643 17.2481 38.4051 17.4774 38.3952 17.6868C38.3853 17.8862 38.3755 18.0856 38.3755 18.2949C38.3952 19.6409 38.415 20.9869 38.415 22.3229C38.415 22.8911 38.415 23.4495 38.415 24.0178H39.5207C39.5207 24.0178 39.5207 22.0038 39.5207 21.8842C39.5207 21.605 39.5207 21.3159 39.5207 21.0367H45.938C45.938 21.5352 45.938 22.0337 45.938 22.5322C45.938 23.0307 45.938 23.5292 45.938 24.0277H47.0437C47.0437 24.0277 47.0437 23.1603 47.0437 23.1205C47.0437 22.1733 47.0437 21.2162 47.0437 20.269C47.0437 19.4116 47.0437 18.5641 47.0437 17.7067C47.0437 16.3807 46.5501 15.0846 45.5135 14.267ZM45.938 19.5412C45.938 19.6908 45.938 19.8403 45.938 19.9799H39.5207C39.5207 19.9101 39.5207 19.8403 39.5207 19.7605C39.5207 18.933 39.4714 18.1055 39.5207 17.288C39.5602 16.7496 39.7972 16.1913 40.0835 15.7426C40.4784 15.1344 41.1003 14.7157 41.8013 14.5562C43.0157 14.277 44.5756 14.5063 45.3555 15.5731C45.6714 16.0118 45.8886 16.5402 45.9281 17.0886C45.9972 17.8961 45.938 18.7336 45.938 19.5412Z" fill="white"/>
<path d="M67.569 14.267C66.4731 13.3996 64.9034 13.29 63.5903 13.5991C63.4027 13.6389 63.225 13.6987 63.0473 13.7685C62.3266 14.0577 61.7244 14.5761 61.2801 15.2142C60.9049 15.7526 60.6384 16.3907 60.5199 17.0387C60.5199 17.2481 60.4606 17.4774 60.4508 17.6868C60.4409 17.8862 60.431 18.0856 60.431 18.2949C60.4508 19.6409 60.4705 20.9869 60.4705 22.3229C60.4705 22.8911 60.4705 23.4495 60.4705 24.0178H61.5763C61.5763 24.0178 61.5763 22.0038 61.5763 21.8842C61.5763 21.605 61.5763 21.3159 61.5763 21.0367H67.9935C67.9935 21.5352 67.9935 22.0337 67.9935 22.5322C67.9935 23.0307 67.9935 23.5292 67.9935 24.0277H69.0993C69.0993 24.0277 69.0993 23.1603 69.0993 23.1205C69.0993 22.1733 69.0993 21.2162 69.0993 20.269C69.0993 19.4116 69.0993 18.5641 69.0993 17.7067C69.1092 16.3807 68.6057 15.0846 67.569 14.267ZM67.9935 19.5412C67.9935 19.6908 67.9935 19.8403 67.9935 19.9799H61.5763C61.5763 19.9101 61.5763 19.8403 61.5763 19.7605C61.5763 18.933 61.5269 18.1055 61.5763 17.288C61.6158 16.7496 61.8527 16.1913 62.139 15.7426C62.5339 15.1344 63.1559 14.7157 63.8569 14.5562C65.0712 14.277 66.6311 14.5063 67.4111 15.5731C67.727 16.0118 67.9442 16.5402 67.9837 17.0886C68.0528 17.8961 67.9935 18.7336 67.9935 19.5412Z" fill="white"/>
<path d="M58.4662 17.0688C58.2885 13.6491 54.9712 13.5394 54.9712 13.5394H50.3508V24.008H51.5059V20.7179H54.8528C54.8528 20.7179 58.5649 20.4686 58.4662 17.0688ZM54.7244 19.7508H51.496V14.5564H54.9021C54.9021 14.5564 57.3901 14.6461 57.3901 17.0688C57.3802 19.5613 54.7244 19.7508 54.7244 19.7508Z" fill="white"/>
<path d="M78.1329 20.4287C79.1991 20.0399 80.5517 19.1426 80.4924 17.0688C80.3147 13.6491 76.9975 13.5394 76.9975 13.5394H72.3771V24.008H73.5322V20.7179H76.879C76.879 20.7179 76.9876 20.7079 77.1555 20.688L79.4064 24.008H80.6899L78.1329 20.4287ZM76.7507 19.7508H73.5223V14.5564H76.9284C76.9284 14.5564 79.4163 14.6461 79.4163 17.0688C79.4064 19.5613 76.7507 19.7508 76.7507 19.7508Z" fill="white"/>
<path d="M90 14.596C90 14.596 88.0156 13.4394 85.6757 13.4394C83.3359 13.4394 81.3515 14.596 81.3515 14.596L81.7563 15.4933C81.7563 15.4933 83.1878 14.5561 85.1031 14.3966V24.0077H86.2089V14.3966C88.1242 14.5561 89.6051 15.4933 89.6051 15.4933L90 14.596Z" fill="white"/>
<path d="M40.1327 25.3438L38.5135 25.3638V27.1484V27.1883V28.9729L40.1327 28.9929C40.182 28.9929 40.2413 28.9829 40.2906 28.9829C40.419 28.963 40.5473 28.9331 40.6757 28.8832C40.8435 28.8234 41.0114 28.7337 41.1496 28.624C41.3273 28.4844 41.4754 28.3149 41.584 28.1155C41.6728 27.956 41.7419 27.7865 41.7814 27.617C41.8209 27.4774 41.8407 27.3379 41.8505 27.1883C41.8505 27.0388 41.8308 26.8992 41.7913 26.7496C41.7617 26.61 41.7123 26.4705 41.6531 26.3408C41.5544 26.1315 41.4161 25.9321 41.2483 25.7726C41.1101 25.6429 40.9422 25.5432 40.7744 25.4735C40.6461 25.4136 40.498 25.3737 40.3598 25.3538C40.2808 25.3538 40.2117 25.3438 40.1327 25.3438C40.1426 25.3438 40.1327 25.3438 40.1327 25.3438ZM41.5149 27.2082C41.4359 28.5841 40.1129 28.7038 40.1129 28.7038H38.8196V27.1883V27.1484V25.633H40.1129C40.1129 25.633 41.4359 25.7526 41.5149 27.1285V27.2082Z" fill="white"/>
<path d="M44.9506 27.4178C44.8617 26.7498 44.3187 26.2413 43.6573 26.2413C42.9366 26.2413 42.3442 26.8595 42.3442 27.6172C42.3442 28.3749 42.9267 28.9931 43.6573 28.9931C44.0818 28.9931 44.5261 28.8335 44.7729 28.5045L44.5754 28.355C44.378 28.5943 43.9831 28.7239 43.6573 28.7239C43.1932 28.7239 42.8082 28.4148 42.67 27.9761L44.9605 27.4975V27.4178H44.9506ZM42.6009 27.6172C42.6009 27.009 43.0748 26.5105 43.6474 26.5105C44.1312 26.5105 44.5359 26.8495 44.6544 27.3181L42.6009 27.7269C42.6009 27.687 42.6009 27.6571 42.6009 27.6172Z" fill="white"/>
<path d="M50.5976 27.4178C50.5087 26.7498 49.9657 26.2413 49.3042 26.2413C48.5835 26.2413 47.9912 26.8595 47.9912 27.6172C47.9912 28.3749 48.5737 28.9931 49.3042 28.9931C49.7288 28.9931 50.173 28.8335 50.4199 28.5045L50.2224 28.355C50.0249 28.5943 49.63 28.7239 49.3042 28.7239C48.8402 28.7239 48.4552 28.4148 48.317 27.9761L50.6074 27.4975V27.4178H50.5976ZM48.2479 27.6172C48.2479 27.009 48.7217 26.5105 49.2944 26.5105C49.7781 26.5105 50.1829 26.8495 50.3014 27.3181L48.2479 27.7269C48.2479 27.687 48.2479 27.6571 48.2479 27.6172Z" fill="white"/>
<path d="M67.1839 27.4178C67.095 26.7498 66.552 26.2413 65.8905 26.2413C65.1698 26.2413 64.5775 26.8595 64.5775 27.6172C64.5775 28.3749 65.1599 28.9931 65.8905 28.9931C66.3151 28.9931 66.7593 28.8335 67.0061 28.5045L66.8087 28.355C66.6112 28.5943 66.2163 28.7239 65.8905 28.7239C65.4265 28.7239 65.0415 28.4148 64.9033 27.9761L67.1937 27.4975V27.4178H67.1839ZM64.844 27.6172C64.844 27.009 65.3179 26.5105 65.8905 26.5105C66.3743 26.5105 66.7791 26.8495 66.8975 27.3181L64.844 27.7269C64.844 27.687 64.844 27.6571 64.844 27.6172Z" fill="white"/>
<path d="M53.8656 26.2413C53.1153 26.2413 52.5032 26.8595 52.5032 27.6172C52.5032 28.3749 53.1153 28.9931 53.8656 28.9931C54.6159 28.9931 55.228 28.3749 55.228 27.6172C55.228 26.8595 54.6258 26.2413 53.8656 26.2413ZM53.8656 28.6939C53.2732 28.6939 52.7993 28.2154 52.7993 27.6172C52.7993 27.019 53.2732 26.5404 53.8656 26.5404C54.458 26.5404 54.9318 27.019 54.9318 27.6172C54.9318 28.2154 54.458 28.6939 53.8656 28.6939Z" fill="white"/>
<path d="M57.3111 26.2413C56.8767 26.2413 56.4917 26.4407 56.2449 26.7598V26.2413H55.9487V30H56.2449V28.4846C56.4917 28.8036 56.8767 29.003 57.3111 29.003C58.0615 29.003 58.6736 28.3849 58.6736 27.6272C58.6736 26.8694 58.0713 26.2413 57.3111 26.2413ZM57.3111 28.694C56.7188 28.694 56.2449 28.2154 56.2449 27.6172C56.2449 27.019 56.7188 26.5404 57.3111 26.5404C57.9035 26.5404 58.3774 27.019 58.3774 27.6172C58.3774 28.2154 57.9035 28.694 57.3111 28.694Z" fill="white"/>
<path d="M47.4976 26.2413L46.4413 28.6042L45.3948 26.2413H45.1084L46.303 29.003H46.4413H46.5894L47.7741 26.2413H47.4976Z" fill="white"/>
<path d="M52.3254 28.6935C52.3353 28.6835 51.97 28.7832 51.7626 28.6935C51.6047 28.6237 51.6047 28.4642 51.6047 28.4642V25.1242H51.3085V28.4742C51.3085 28.4742 51.3184 28.853 51.6738 28.9527C51.9206 29.0126 52.355 28.9527 52.355 28.9527L52.3254 28.6935Z" fill="white"/>
<path d="M72.5647 28.6141C72.5746 28.6041 72.1205 28.7836 71.8341 28.7038C71.6959 28.6639 71.6762 28.4745 71.6762 28.4745V26.5304H72.4956V26.2313H71.6762V25.643H71.38V28.4745C71.38 28.4745 71.3899 28.8534 71.7453 28.9531C72.1106 29.0328 72.624 28.8633 72.624 28.8633L72.5647 28.6141Z" fill="white"/>
<path d="M70.3335 27.0889C70.3236 27.039 70.3038 26.9792 70.2841 26.9294C70.2545 26.8695 70.2249 26.7998 70.1854 26.7499C70.0866 26.6004 69.9682 26.4608 69.8102 26.371C69.6424 26.2713 69.4449 26.2215 69.2475 26.2215C68.6551 26.2514 68.3885 26.5405 68.2701 26.8097V26.2414H67.9443V29.0031H68.2701V27.2085C68.3688 26.9194 68.6057 26.4907 69.1981 26.4807C69.4548 26.4707 69.7214 26.5505 69.8793 26.7798C69.978 26.9194 70.0077 27.059 70.0077 27.2185C70.0077 27.3082 70.0077 27.398 70.0077 27.4877C70.0077 27.7369 70.0077 27.9762 70.0077 28.2255C70.0077 28.4348 70.0077 28.6542 70.0077 28.8636C70.0077 28.8735 70.0077 29.0031 70.0077 29.0031H70.3532C70.3532 28.9334 70.3532 28.8636 70.3532 28.7938C70.3532 28.6342 70.3532 28.4648 70.3532 28.3052C70.3532 28.1158 70.3532 27.9164 70.3532 27.727C70.3532 27.5675 70.3532 27.4179 70.3532 27.2584C70.3335 27.1986 70.3335 27.1487 70.3335 27.0889Z" fill="white"/>
<path d="M62.7609 26.2215C62.0698 26.2514 61.823 26.6402 61.7341 26.9294C61.6157 26.6701 61.3293 26.2215 60.6975 26.2215C60.1051 26.2514 59.8386 26.5405 59.7201 26.8097V26.2414H59.3943V29.0031H59.7201V27.2085C59.8188 26.9194 60.0558 26.4907 60.6481 26.4807C60.9048 26.4707 61.1714 26.5505 61.3293 26.7798C61.4281 26.9194 61.4577 27.059 61.4577 27.2185C61.4577 27.3082 61.4577 27.398 61.4577 27.4877C61.4577 27.7369 61.4577 27.9762 61.4577 28.2255C61.4577 28.4348 61.4577 28.6542 61.4577 28.8636C61.4577 28.8735 61.4577 29.0031 61.4577 29.0031H61.8032C61.8032 29.0031 61.8032 27.3481 61.8032 27.1587C61.8032 26.9693 62.1587 26.4907 62.7115 26.4907C62.9682 26.4807 63.2348 26.5605 63.3927 26.7898C63.4915 26.9294 63.5211 27.0689 63.5211 27.2285C63.5211 27.3182 63.5211 27.4079 63.5211 27.4977C63.5211 27.7469 63.5211 27.9862 63.5211 28.2354C63.5211 28.4448 63.5211 28.6642 63.5211 28.8735C63.5211 28.8835 63.5211 29.0131 63.5211 29.0131H63.8666C63.8666 28.8935 63.8666 28.7738 63.8666 28.6542C63.8666 28.4049 63.8666 28.1557 63.8666 27.9064C63.8666 27.6871 63.8666 27.4678 63.8666 27.2584C63.8666 27.1886 63.8666 27.1188 63.8469 27.059C63.837 27.0291 63.8271 27.0091 63.8173 26.9792C63.7877 26.8995 63.7482 26.8197 63.6988 26.7499C63.5705 26.5505 63.3927 26.381 63.1657 26.3013C63.0373 26.2414 62.8991 26.2215 62.7609 26.2215Z" fill="white"/>
</svg>
